<svg width="312" height="34" viewBox="0 0 312 34" fill="none" xmlns="http://www.w3.org/2000/svg">
    <path d="M0.49529 10H5.96929V5.446L9.55729 4.434V10H21.8393V13.082H9.55729V23.938C9.55729 26.1767 10.094 27.8327 11.1673 28.906C12.2713 29.9793 13.8353 30.516 15.8593 30.516C17.2393 30.516 18.4353 30.2553 19.4473 29.734C20.49 29.2127 21.4253 28.6453 22.2533 28.032L23.4493 30.746C22.376 31.6047 21.088 32.2947 19.5853 32.816C18.1133 33.3373 16.5953 33.598 15.0313 33.598C13.8046 33.598 12.6393 33.414 11.5353 33.046C10.462 32.7087 9.51129 32.172 8.68329 31.436C7.85529 30.7 7.19596 29.7647 6.70529 28.63C6.21462 27.4647 5.96929 26.0847 5.96929 24.49V13.082H0.49529V10ZM30.4192 21.5C30.4192 17.7893 31.3852 14.8607 33.3172 12.714C35.2492 10.5367 38.0092 9.448 41.5972 9.448C43.5292 9.448 45.1852 9.77 46.5652 10.414C47.9759 11.0273 49.1412 11.8707 50.0612 12.944C50.9812 14.0173 51.6559 15.29 52.0852 16.762C52.5452 18.234 52.7752 19.8133 52.7752 21.5C52.7752 23.34 52.5299 25.0113 52.0392 26.514C51.5486 27.986 50.8279 29.2433 49.8772 30.286C48.9266 31.3287 47.7459 32.1413 46.3352 32.724C44.9552 33.276 43.3759 33.552 41.5972 33.552C39.6959 33.552 38.0399 33.2453 36.6292 32.632C35.2186 31.988 34.0532 31.1293 33.1332 30.056C32.2132 28.9827 31.5232 27.71 31.0632 26.238C30.6339 24.766 30.4192 23.1867 30.4192 21.5ZM34.2372 21.5C34.2372 22.5733 34.3599 23.6467 34.6052 24.72C34.8812 25.7933 35.3106 26.7593 35.8932 27.618C36.4759 28.4767 37.2272 29.1667 38.1472 29.688C39.0979 30.2093 40.2479 30.47 41.5972 30.47C44.0506 30.47 45.8906 29.7187 47.1172 28.216C48.3746 26.6827 49.0032 24.444 49.0032 21.5C49.0032 20.396 48.8652 19.3227 48.5892 18.28C48.3439 17.2067 47.9146 16.2407 47.3012 15.382C46.7186 14.5233 45.9519 13.8333 45.0012 13.312C44.0812 12.7907 42.9466 12.53 41.5972 12.53C39.1439 12.53 37.3039 13.2813 36.0772 14.784C34.8506 16.2867 34.2372 18.5253 34.2372 21.5ZM59.7452 0.799998H67.3812V25.272C67.3812 27.1427 67.6878 28.4613 68.3012 29.228C68.9452 29.9947 69.8805 30.378 71.1072 30.378C71.9658 30.378 72.8398 30.2093 73.7292 29.872C74.6185 29.5347 75.4312 29.0593 76.1672 28.446L77.8232 30.884C77.3325 31.3133 76.7958 31.6967 76.2132 32.034C75.6305 32.3713 75.0325 32.6627 74.4192 32.908C73.8058 33.1227 73.1925 33.2913 72.5792 33.414C71.9658 33.5367 71.3985 33.598 70.8772 33.598C69.7425 33.598 68.7305 33.4447 67.8412 33.138C66.9518 32.862 66.2005 32.402 65.5872 31.758C65.0045 31.114 64.5598 30.2707 64.2532 29.228C63.9465 28.1547 63.7932 26.836 63.7932 25.272V3.882H59.7452V0.799998ZM90.0831 33V29.918H98.0871V13.082H90.0831V10H101.767V29.918H109.587V33H90.0831ZM96.8451 3.468C96.8451 2.64 97.1211 1.93467 97.6731 1.352C98.2251 0.738666 98.9304 0.432 99.7891 0.432C100.678 0.432 101.414 0.738666 101.997 1.352C102.61 1.93467 102.917 2.64 102.917 3.468C102.917 4.26533 102.61 4.94 101.997 5.492C101.414 6.044 100.678 6.32 99.7891 6.32C98.9304 6.32 98.2251 6.044 97.6731 5.492C97.1211 4.94 96.8451 4.26533 96.8451 3.468ZM116.051 18.97V17.636L137.717 4.434L139.465 7.286L121.203 18.096L139.511 28.722L137.763 31.482L116.051 18.97ZM162.903 13.542C162.198 13.2967 161.431 13.0973 160.603 12.944C159.806 12.76 159.008 12.668 158.211 12.668C155.206 12.668 152.967 13.3733 151.495 14.784C150.023 16.1947 149.287 18.4333 149.287 21.5C149.287 22.8493 149.502 24.0607 149.931 25.134C150.36 26.1767 150.974 27.066 151.771 27.802C152.568 28.538 153.519 29.1053 154.623 29.504C155.758 29.9027 157 30.102 158.349 30.102C159.79 30.102 161.186 29.8567 162.535 29.366C163.915 28.8753 165.065 28.2313 165.985 27.434L167.595 30.102C167.166 30.47 166.629 30.8533 165.985 31.252C165.341 31.6507 164.59 32.034 163.731 32.402C162.903 32.7393 161.968 33.0153 160.925 33.23C159.913 33.4447 158.809 33.552 157.613 33.552C155.62 33.552 153.856 33.276 152.323 32.724C150.82 32.1413 149.563 31.3287 148.551 30.286C147.539 29.2127 146.772 27.94 146.251 26.468C145.73 24.9653 145.469 23.3093 145.469 21.5C145.469 19.568 145.73 17.8507 146.251 16.348C146.803 14.8453 147.585 13.588 148.597 12.576C149.609 11.564 150.836 10.7973 152.277 10.276C153.718 9.724 155.328 9.448 157.107 9.448C159.376 9.448 161.216 9.64733 162.627 10.046C164.068 10.4447 165.28 10.8893 166.261 11.38L166.215 11.518V17.912H162.903V13.542ZM174.059 21.5C174.059 17.7893 175.025 14.8607 176.957 12.714C178.889 10.5367 181.649 9.448 185.237 9.448C187.169 9.448 188.825 9.77 190.205 10.414C191.616 11.0273 192.781 11.8707 193.701 12.944C194.621 14.0173 195.296 15.29 195.725 16.762C196.185 18.234 196.415 19.8133 196.415 21.5C196.415 23.34 196.17 25.0113 195.679 26.514C195.188 27.986 194.468 29.2433 193.517 30.286C192.566 31.3287 191.386 32.1413 189.975 32.724C188.595 33.276 187.016 33.552 185.237 33.552C183.336 33.552 181.68 33.2453 180.269 32.632C178.858 31.988 177.693 31.1293 176.773 30.056C175.853 28.9827 175.163 27.71 174.703 26.238C174.274 24.766 174.059 23.1867 174.059 21.5ZM177.877 21.5C177.877 22.5733 178 23.6467 178.245 24.72C178.521 25.7933 178.95 26.7593 179.533 27.618C180.116 28.4767 180.867 29.1667 181.787 29.688C182.738 30.2093 183.888 30.47 185.237 30.47C187.69 30.47 189.53 29.7187 190.757 28.216C192.014 26.6827 192.643 24.444 192.643 21.5C192.643 20.396 192.505 19.3227 192.229 18.28C191.984 17.2067 191.554 16.2407 190.941 15.382C190.358 14.5233 189.592 13.8333 188.641 13.312C187.721 12.7907 186.586 12.53 185.237 12.53C182.784 12.53 180.944 13.2813 179.717 14.784C178.49 16.2867 177.877 18.5253 177.877 21.5ZM216.219 0.799998H223.671V25.134C223.671 25.41 223.686 25.7627 223.717 26.192C223.748 26.5907 223.778 27.02 223.809 27.48C223.87 27.94 223.932 28.4 223.993 28.86C224.054 29.2893 224.116 29.6727 224.177 30.01H227.259V33H221.141L220.681 29.458H220.497C219.822 30.6233 218.81 31.6047 217.461 32.402C216.142 33.1687 214.609 33.552 212.861 33.552C209.396 33.552 206.835 32.586 205.179 30.654C203.554 28.6913 202.741 25.6553 202.741 21.546C202.741 19.614 203.017 17.912 203.569 16.44C204.121 14.9373 204.903 13.6953 205.915 12.714C206.958 11.702 208.2 10.9353 209.641 10.414C211.082 9.89267 212.692 9.632 214.471 9.632C215.115 9.632 215.682 9.64733 216.173 9.678C216.694 9.70866 217.17 9.75467 217.599 9.816C218.028 9.87733 218.427 9.96933 218.795 10.092C219.194 10.184 219.623 10.2913 220.083 10.414V3.882H216.219V0.799998ZM213.459 30.47C215.33 30.47 216.802 29.9947 217.875 29.044C218.948 28.0627 219.684 26.606 220.083 24.674V14.002C219.408 13.542 218.642 13.2047 217.783 12.99C216.955 12.7753 215.851 12.668 214.471 12.668C212.018 12.668 210.086 13.3887 208.675 14.83C207.264 16.2407 206.559 18.4793 206.559 21.546C206.559 22.8033 206.666 23.984 206.881 25.088C207.126 26.1613 207.51 27.0967 208.031 27.894C208.583 28.6913 209.304 29.32 210.193 29.78C211.082 30.24 212.171 30.47 213.459 30.47ZM253.227 30.102C252.675 30.5927 252.015 31.0527 251.249 31.482C250.513 31.9113 249.7 32.2793 248.811 32.586C247.921 32.8927 246.986 33.1227 246.005 33.276C245.054 33.46 244.088 33.552 243.107 33.552C241.267 33.552 239.641 33.276 238.231 32.724C236.82 32.1413 235.639 31.3287 234.689 30.286C233.738 29.2127 233.017 27.94 232.527 26.468C232.036 24.996 231.791 23.34 231.791 21.5C231.791 19.568 232.051 17.8507 232.573 16.348C233.125 14.8453 233.907 13.588 234.919 12.576C235.931 11.564 237.157 10.7973 238.599 10.276C240.04 9.724 241.65 9.448 243.429 9.448C244.717 9.448 245.989 9.61667 247.247 9.954C248.504 10.2913 249.608 10.9353 250.559 11.886C251.54 12.806 252.291 14.094 252.813 15.75C253.334 17.3753 253.518 19.4913 253.365 22.098H235.563C235.563 24.858 236.299 26.928 237.771 28.308C239.273 29.6573 241.267 30.332 243.751 30.332C244.579 30.332 245.391 30.24 246.189 30.056C247.017 29.8413 247.799 29.596 248.535 29.32C249.271 29.044 249.915 28.7373 250.467 28.4C251.049 28.0627 251.494 27.756 251.801 27.48L253.227 30.102ZM243.521 12.484C242.509 12.484 241.543 12.5913 240.623 12.806C239.733 13.0207 238.936 13.3887 238.231 13.91C237.556 14.4007 236.989 15.06 236.529 15.888C236.099 16.6853 235.823 17.682 235.701 18.878H250.007C249.853 16.854 249.194 15.29 248.029 14.186C246.894 13.0513 245.391 12.484 243.521 12.484ZM277.769 26.79C277.769 25.8087 277.385 25.0573 276.619 24.536C275.852 23.984 274.901 23.5547 273.767 23.248C272.632 22.9107 271.39 22.604 270.041 22.328C268.722 22.052 267.495 21.684 266.361 21.224C265.226 20.764 264.275 20.1507 263.509 19.384C262.742 18.5867 262.359 17.4827 262.359 16.072C262.359 14.9067 262.604 13.91 263.095 13.082C263.616 12.254 264.291 11.5793 265.119 11.058C265.947 10.506 266.913 10.1073 268.017 9.862C269.121 9.586 270.271 9.448 271.467 9.448C273.613 9.448 275.453 9.724 276.987 10.276C278.551 10.7973 279.793 11.3493 280.713 11.932L279.241 14.83C278.229 14.278 277.125 13.7567 275.929 13.266C274.763 12.7447 273.291 12.484 271.513 12.484C270.838 12.484 270.163 12.5607 269.489 12.714C268.845 12.8367 268.247 13.036 267.695 13.312C267.173 13.588 266.744 13.956 266.407 14.416C266.1 14.8453 265.947 15.382 265.947 16.026C265.947 16.8233 266.33 17.4367 267.097 17.866C267.863 18.2953 268.814 18.6633 269.949 18.97C271.083 19.246 272.31 19.522 273.629 19.798C274.978 20.0433 276.22 20.4113 277.355 20.902C278.489 21.3927 279.44 22.052 280.207 22.88C280.973 23.708 281.357 24.8273 281.357 26.238C281.357 28.354 280.513 30.102 278.827 31.482C277.171 32.862 274.671 33.552 271.329 33.552C270.317 33.552 269.32 33.46 268.339 33.276C267.357 33.092 266.437 32.8467 265.579 32.54C264.72 32.2333 263.938 31.896 263.233 31.528C262.527 31.1293 261.945 30.7307 261.485 30.332L263.325 27.342C263.693 27.71 264.183 28.0933 264.797 28.492C265.41 28.86 266.085 29.1973 266.821 29.504C267.557 29.8107 268.339 30.056 269.167 30.24C270.025 30.424 270.884 30.516 271.743 30.516C272.571 30.516 273.337 30.4547 274.043 30.332C274.779 30.1787 275.423 29.964 275.975 29.688C276.527 29.3813 276.956 28.998 277.263 28.538C277.6 28.0473 277.769 27.4647 277.769 26.79ZM290.167 31.482L288.419 28.722L306.727 18.096L288.465 7.286L290.213 4.434L311.879 17.636V18.97L290.167 31.482Z" fill="black" />
</svg>